<?xml version="1.0" encoding="UTF-8" standalone="no"?>
<!DOCTYPE svg PUBLIC "-//W3C//DTD SVG 1.1//EN"
 "http://www.w3.org/Graphics/SVG/1.1/DTD/svg11.dtd">
<!-- Generated by graphviz version 10.0.1 (20240210.2158)
 -->
<!-- Title: G Pages: 1 -->
<svg width="1165pt" height="98pt"
 viewBox="0.00 0.00 1164.75 98.00" xmlns="http://www.w3.org/2000/svg" xmlns:xlink="http://www.w3.org/1999/xlink">
<g id="graph0" class="graph" transform="scale(1 1) rotate(0) translate(4 94)">
<title>G</title>
<polygon fill="white" stroke="none" points="-4,4 -4,-94 1160.75,-94 1160.75,4 -4,4"/>
<!-- data.google_container_engine_versions.gke_version -->
<g id="node1" class="node">
<title>data.google_container_engine_versions.gke_version</title>
<polygon fill="none" stroke="black" points="837,-90 505.25,-90 505.25,-54 837,-54 837,-90"/>
<text text-anchor="middle" x="671.12" y="-66.2" font-family="sans-serif" font-size="14.00">data.google_container_engine_versions.gke_version</text>
</g>
<!-- google_compute_network.vpc -->
<g id="node2" class="node">
<title>google_compute_network.vpc</title>
<polygon fill="none" stroke="black" points="196,-36 0,-36 0,0 196,0 196,-36"/>
<text text-anchor="middle" x="98" y="-12.2" font-family="sans-serif" font-size="14.00">google_compute_network.vpc</text>
</g>
<!-- google_compute_subnetwork.subnet -->
<g id="node3" class="node">
<title>google_compute_subnetwork.subnet</title>
<polygon fill="none" stroke="black" points="469.25,-36 232,-36 232,0 469.25,0 469.25,-36"/>
<text text-anchor="middle" x="350.62" y="-12.2" font-family="sans-serif" font-size="14.00">google_compute_subnetwork.subnet</text>
</g>
<!-- google_compute_subnetwork.subnet&#45;&gt;google_compute_network.vpc -->
<g id="edge1" class="edge">
<title>google_compute_subnetwork.subnet&#45;&gt;google_compute_network.vpc</title>
<path fill="none" stroke="black" d="M231.65,-18C223.72,-18 215.75,-18 207.86,-18"/>
<polygon fill="black" stroke="black" points="207.9,-14.5 197.9,-18 207.9,-21.5 207.9,-14.5"/>
</g>
<!-- google_container_cluster.primary -->
<g id="node4" class="node">
<title>google_container_cluster.primary</title>
<polygon fill="none" stroke="black" points="779.25,-36 563,-36 563,0 779.25,0 779.25,-36"/>
<text text-anchor="middle" x="671.12" y="-12.2" font-family="sans-serif" font-size="14.00">google_container_cluster.primary</text>
</g>
<!-- google_container_cluster.primary&#45;&gt;google_compute_subnetwork.subnet -->
<g id="edge2" class="edge">
<title>google_container_cluster.primary&#45;&gt;google_compute_subnetwork.subnet</title>
<path fill="none" stroke="black" d="M562.74,-18C536.39,-18 507.92,-18 480.67,-18"/>
<polygon fill="black" stroke="black" points="481,-14.5 471,-18 481,-21.5 481,-14.5"/>
</g>
<!-- google_container_node_pool.primary_nodes -->
<g id="node5" class="node">
<title>google_container_node_pool.primary_nodes</title>
<polygon fill="none" stroke="black" points="1156.75,-63 873,-63 873,-27 1156.75,-27 1156.75,-63"/>
<text text-anchor="middle" x="1014.88" y="-39.2" font-family="sans-serif" font-size="14.00">google_container_node_pool.primary_nodes</text>
</g>
<!-- google_container_node_pool.primary_nodes&#45;&gt;data.google_container_engine_versions.gke_version -->
<g id="edge3" class="edge">
<title>google_container_node_pool.primary_nodes&#45;&gt;data.google_container_engine_versions.gke_version</title>
<path fill="none" stroke="black" d="M872.9,-56.14C864.9,-56.77 856.81,-57.41 848.71,-58.05"/>
<polygon fill="black" stroke="black" points="848.45,-54.56 838.75,-58.84 849,-61.54 848.45,-54.56"/>
</g>
<!-- google_container_node_pool.primary_nodes&#45;&gt;google_container_cluster.primary -->
<g id="edge4" class="edge">
<title>google_container_node_pool.primary_nodes&#45;&gt;google_container_cluster.primary</title>
<path fill="none" stroke="black" d="M872.9,-33.86C845.63,-31.71 817.31,-29.47 790.84,-27.38"/>
<polygon fill="black" stroke="black" points="791.37,-23.91 781.13,-26.61 790.82,-30.89 791.37,-23.91"/>
</g>
</g>
</svg>
